<svg width="66" height="41" viewBox="0 0 66 41" xmlns="http://www.w3.org/2000/svg">
    <g fill="#F72717" fill-rule="evenodd">
        <path d="M25.015 17.803c-1.174 0-1.921.775-2.152 1.802h4.177c-.142-1.135-.924-1.802-2.025-1.802M13.852 18.253c-1.494 0-2.437 1.045-2.437 2.506 0 1.44.962 2.522 2.437 2.522 1.475 0 2.472-1.028 2.472-2.522 0-1.496-.997-2.506-2.472-2.506"/>
        <path d="m28.154 23.027-.225 2.18c-.782.324-1.725.45-2.667.45-3.127 0-5.33-1.856-5.33-5.007 0-2.738 1.97-4.793 4.993-4.793 3.414 0 5.119 2.2 5.049 5.584h-7.039c.265 1.55 1.723 2.145 2.986 2.145.8 0 1.54-.234 2.233-.559zm-9.093-2.828c0 3.442-2.008 5.459-5.335 5.459-3.073 0-5.154-2.089-5.154-4.9 0-2.936 1.973-4.9 4.924-4.9 1.35 0 2.346.54 2.843 1.08v-4.18h2.722v7.44zM39.72 19.12c-.019.002.014 0-.005.002C39.009 8.443 30.697 0 19.982 0c-8.47 0-15.717 5.277-18.73 12.758H8.43l-.372 2.453H2.422v2.592h5.101l-.39 2.36h-4.71v1.513c0 .918.391 1.351 1.138 1.351h4.816l-.39 2.45H2.654c-.26 0-.507-.023-.742-.067 0 .002-.922-.1-1.496-.855-.012-.017-.244-.298-.36-.757-.032-.122-.032-.128-.056-.224.038.307.101.715.131.869.163.853.368 1.578.387 1.629C2.912 34.685 10.718 41 19.982 41c9.476 0 17.484-6.606 19.676-15.522H36.94V20.47c0-1.353-.515-2.218-1.83-2.218-1.316 0-1.832.865-1.832 2.218v5.007h-2.72v-5.693c0-2.72 1.956-3.928 4.552-3.928 2.595 0 4.55 1.208 4.55 3.928l-.002 5.693h2.737V20.47c0-1.353.355-2.218 1.652-2.218.408 0 .907.128 1.087.217l.514-2.414c-.303-.036-1.067-.199-1.654-.199-2.24 0-3.988.909-4.274 3.264zM48.1 19.605c.231-1.027.98-1.803 2.15-1.803 1.102 0 1.886.668 2.026 1.803H48.1zm2.062-3.748c-3.022 0-4.995 2.055-4.995 4.793 0 3.152 2.204 5.008 5.333 5.008.942 0 1.885-.127 2.664-.451l.228-2.18c-.694.325-1.434.559-2.234.559-1.262 0-2.72-.596-2.987-2.145h7.038c.073-3.385-1.635-5.584-5.047-5.584zM60.792 23.28c-1.476 0-2.437-1.08-2.437-2.521 0-1.461.942-2.506 2.437-2.506 1.474 0 2.47 1.01 2.47 2.506 0 1.493-.996 2.52-2.47 2.52zm2.486-10.522v4.18c-.497-.54-1.491-1.08-2.843-1.08-2.95 0-4.922 1.964-4.922 4.9 0 2.811 2.079 4.9 5.152 4.9 3.326 0 5.335-2.017 5.335-5.46v-7.44h-2.722z"/>
    </g>
</svg>
