<svg width="60" height="66" viewBox="0 0 60 66" xmlns="http://www.w3.org/2000/svg">
    <path d="M54.137 37.814a1.062 1.062 0 0 0-.766-.655 1.067 1.067 0 0 0-.964.286l-3.123 3.128-1.643-1.645 3.123-3.13a1.056 1.056 0 0 0-.368-1.733 6.544 6.544 0 0 0-2.365-.438 6.624 6.624 0 0 0-4.716 1.962c-1.89 1.892-2.461 4.654-1.53 7.08l-5.532 5.986a1.056 1.056 0 0 0 .027 1.463l1.827 1.83a1.058 1.058 0 0 0 1.464.028l5.977-5.544a6.644 6.644 0 0 0 7.07-1.53 6.659 6.659 0 0 0 1.52-7.088zm-3.01 5.598a4.531 4.531 0 0 1-3.228 1.342 4.428 4.428 0 0 1-2.065-.506 1.053 1.053 0 0 0-1.206.162l-5.744 5.325-.39-.39 5.318-5.752c.305-.327.368-.811.162-1.208-.915-1.752-.58-3.88.838-5.3a4.52 4.52 0 0 1 3.03-1.337l-1.855 1.857c-.354.355-.549.825-.549 1.328 0 .501.195.974.55 1.326l1.977 1.98c.709.71 1.94.71 2.648 0l1.854-1.856a4.61 4.61 0 0 1-1.34 3.029zM47.74 29.13v-8.668a2.946 2.946 0 0 0-2.942-2.946H2.939A2.947 2.947 0 0 0 0 20.462v9.169a2.947 2.947 0 0 0 2.94 2.946h32.645a14.892 14.892 0 0 0-1.661 1.694H2.94c-1.621 0-2.94 1.32-2.94 2.946v9.17a2.947 2.947 0 0 0 2.94 2.947h19.876v9.093a3.865 3.865 0 0 0-2.65 2.658l-10.409-.003a1.056 1.056 0 0 0 0 2.112h10.406A3.86 3.86 0 0 0 23.868 66a3.864 3.864 0 0 0 3.708-2.806h10.405a1.056 1.056 0 0 0 0-2.112H27.576a3.874 3.874 0 0 0-2.653-2.657l.003-9.094h6.768c2.225 5.317 7.477 9.06 13.583 9.06C53.397 58.392 60 51.78 60 43.648c-.003-7.286-5.312-13.34-12.26-14.518v.001zM2.939 30.464a.832.832 0 0 1-.83-.833v-9.169c0-.459.371-.833.83-.833h41.859c.458 0 .832.374.832.833v8.462c-.118-.003-.233-.017-.354-.017-2.36 0-4.585.572-6.563 1.565a.41.41 0 0 0-.06-.005L2.94 30.464zm22.678 31.674a1.75 1.75 0 0 1-1.747 1.75 1.75 1.75 0 0 1 0-3.5 1.75 1.75 0 0 1 1.747 1.75zm4.936-18.49c0 1.232.167 2.423.453 3.57H2.939a.832.832 0 0 1-.83-.833v-9.169c0-.459.371-.833.83-.833H32.48a14.64 14.64 0 0 0-1.928 7.264zm14.723 12.631c-6.955 0-12.614-5.666-12.614-12.631s5.659-12.632 12.614-12.632c.368 0 .728.025 1.09.055.102.033.21.055.32.055.035 0 .068-.008.101-.01 6.244.75 11.1 6.078 11.1 12.532 0 6.964-5.656 12.631-12.611 12.631zM2.94 15.06H44.8a2.947 2.947 0 0 0 2.94-2.946V2.946A2.946 2.946 0 0 0 44.8 0H2.938C1.32 0 0 1.32 0 2.946v9.168a2.947 2.947 0 0 0 2.94 2.946zM2.11 2.946c0-.459.371-.833.83-.833H44.8c.458 0 .831.374.831.833v9.169c0 .46-.373.833-.832.833H2.94a.832.832 0 0 1-.83-.833V2.946zm4.61 6.239a1.656 1.656 0 0 0 0-3.312 1.656 1.656 0 0 0 0 3.312zm0-2.113c.253 0 .456.204.456.457a.455.455 0 1 1-.912 0 .455.455 0 0 1 .456-.457zm5.845 2.113a1.656 1.656 0 0 0 0-3.312 1.656 1.656 0 0 0 0 3.312zm0-2.113a.457.457 0 1 1-.002.914.457.457 0 0 1 .002-.914zm5.845 2.113a1.656 1.656 0 0 0 0-3.312 1.656 1.656 0 0 0 0 3.312zm0-2.113c.253 0 .456.204.456.457a.455.455 0 1 1-.912 0c0-.25.204-.457.456-.457zM6.72 23.392a1.656 1.656 0 0 0 0 3.312 1.656 1.656 0 0 0 0-3.312zm0 2.113a.457.457 0 1 1 .002-.913.457.457 0 0 1-.002.913zm5.845-2.113a1.656 1.656 0 0 0 0 3.312 1.656 1.656 0 0 0 0-3.312zm0 2.113a.457.457 0 1 1 .002-.914.457.457 0 0 1-.002.914zm5.845-2.113a1.656 1.656 0 0 0 0 3.312 1.656 1.656 0 0 0 0-3.312zm0 2.113a.457.457 0 1 1 .002-.913.457.457 0 0 1-.002.913zM6.72 43.459a1.656 1.656 0 0 0 0-3.312 1.656 1.656 0 0 0 0 3.312zm0-2.113a.457.457 0 1 1-.002.913.457.457 0 0 1 .002-.913zm5.845 2.113a1.656 1.656 0 0 0 0-3.312 1.656 1.656 0 0 0 0 3.312zm0-2.113a.457.457 0 1 1-.002.914.457.457 0 0 1 .002-.914zm5.845 2.113a1.656 1.656 0 0 0 0-3.312 1.656 1.656 0 0 0 0 3.312zm0-2.113a.457.457 0 1 1-.002.913.457.457 0 0 1 .002-.913z"
          fill="#162056" fill-rule="evenodd"/>
</svg>
