<svg width="86" height="94" xmlns="http://www.w3.org/2000/svg">
    <path d="M76.988 53.7a1.51 1.51 0 0 0-1.09-.93 1.518 1.518 0 0 0-1.371.406l-4.441 4.441-2.336-2.335 4.441-4.446a1.5 1.5 0 0 0-.523-2.46 9.317 9.317 0 0 0-3.364-.622c-2.527 0-4.91.989-6.707 2.785-2.687 2.688-3.5 6.61-2.175 10.055l-7.868 8.5a1.498 1.498 0 0 0 .04 2.079l2.597 2.597a1.506 1.506 0 0 0 2.082.04l8.5-7.872a9.46 9.46 0 0 0 10.055-2.172c2.648-2.644 3.496-6.597 2.16-10.066zm-4.281 7.949a6.448 6.448 0 0 1-4.59 1.906 6.305 6.305 0 0 1-2.938-.719 1.5 1.5 0 0 0-1.714.23l-8.168 7.563-.555-.555 7.562-8.168a1.499 1.499 0 0 0 .23-1.714c-1.3-2.489-.823-5.512 1.192-7.528a6.43 6.43 0 0 1 4.309-1.898l-2.637 2.637a2.647 2.647 0 0 0-.781 1.886c0 .711.277 1.383.781 1.883l2.813 2.813c1.007 1.007 2.757 1.007 3.765 0l2.637-2.637a6.542 6.542 0 0 1-1.906 4.3zM67.89 41.368v-12.31a4.186 4.186 0 0 0-4.183-4.183H4.18A4.188 4.188 0 0 0 0 29.06v13.02a4.188 4.188 0 0 0 4.18 4.183h46.426a21.162 21.162 0 0 0-2.364 2.406H4.18A4.186 4.186 0 0 0 0 52.852v13.023a4.188 4.188 0 0 0 4.18 4.184h28.266v12.914a5.492 5.492 0 0 0-3.77 3.773l-14.8-.004a1.5 1.5 0 0 0 0 3h14.797a5.49 5.49 0 0 0 5.27 3.985c2.503 0 4.617-1.688 5.273-3.985h14.797a1.5 1.5 0 0 0 0-3H39.216a5.505 5.505 0 0 0-3.774-3.773l.004-12.914h9.625c3.164 7.55 10.633 12.867 19.316 12.867 11.547 0 20.938-9.39 20.938-20.938-.004-10.348-7.554-18.945-17.434-20.617zM4.18 43.262c-.653 0-1.18-.531-1.18-1.183v-13.02c0-.653.527-1.184 1.18-1.184h59.526c.653 0 1.184.531 1.184 1.184v12.016c-.168-.004-.332-.024-.504-.024-3.356 0-6.52.813-9.332 2.223a.585.585 0 0 0-.086-.008L4.18 43.262zm32.25 44.98a2.486 2.486 0 0 1-2.485 2.485 2.486 2.486 0 0 1-2.485-2.485 2.486 2.486 0 0 1 2.485-2.484 2.486 2.486 0 0 1 2.484 2.484zm7.019-26.258c0 1.75.238 3.442.644 5.07H4.18c-.652 0-1.18-.53-1.18-1.183V52.85c0-.652.528-1.184 1.18-1.184h42.012a20.769 20.769 0 0 0-2.742 10.316v.001zm20.938 17.938c-9.89 0-17.938-8.047-17.938-17.938 0-9.89 8.047-17.938 17.938-17.938.523 0 1.035.035 1.55.078.145.047.297.078.454.078.05 0 .097-.011.144-.015 8.88 1.066 15.785 8.633 15.785 17.797 0 9.89-8.043 17.938-17.934 17.938zM4.18 21.387h59.527a4.189 4.189 0 0 0 4.183-4.183V4.184A4.186 4.186 0 0 0 63.707 0H4.18A4.185 4.185 0 0 0 0 4.184v13.02a4.188 4.188 0 0 0 4.18 4.183zM3 4.184c0-.652.527-1.183 1.18-1.183h59.527c.652 0 1.183.53 1.183 1.183v13.02c0 .653-.53 1.184-1.183 1.184H4.18c-.653 0-1.18-.531-1.18-1.184V4.184zm6.555 8.86a2.354 2.354 0 0 0 2.351-2.352A2.354 2.354 0 0 0 9.555 8.34a2.354 2.354 0 0 0-2.352 2.352 2.354 2.354 0 0 0 2.352 2.352zm0-3c.36 0 .648.289.648.648 0 .36-.289.648-.648.648a.647.647 0 0 1-.649-.648.647.647 0 0 1 .649-.648zm8.312 3a2.354 2.354 0 0 0 2.352-2.352 2.354 2.354 0 0 0-2.352-2.352 2.354 2.354 0 0 0-2.351 2.352 2.354 2.354 0 0 0 2.351 2.352zm0-3a.65.65 0 0 1 0 1.296.65.65 0 0 1 0-1.296zm8.313 3a2.354 2.354 0 0 0 2.351-2.352A2.354 2.354 0 0 0 26.18 8.34a2.354 2.354 0 0 0-2.352 2.352 2.359 2.359 0 0 0 2.352 2.352zm0-3c.36 0 .648.289.648.648 0 .36-.289.648-.648.648a.65.65 0 0 1 0-1.297zM9.555 33.22a2.354 2.354 0 0 0-2.352 2.351 2.354 2.354 0 0 0 2.352 2.352 2.354 2.354 0 0 0 2.351-2.352 2.359 2.359 0 0 0-2.351-2.351zm0 3a.65.65 0 1 1 .648-.648.65.65 0 0 1-.648.648zm8.312-3a2.354 2.354 0 0 0-2.351 2.351 2.354 2.354 0 0 0 2.351 2.352 2.354 2.354 0 0 0 2.352-2.352 2.354 2.354 0 0 0-2.352-2.351zm0 3a.65.65 0 0 1 0-1.297.65.65 0 0 1 0 1.297zm8.313-3a2.354 2.354 0 0 0-2.352 2.351 2.354 2.354 0 0 0 2.352 2.352 2.354 2.354 0 0 0 2.351-2.352 2.354 2.354 0 0 0-2.351-2.351zm0 3a.65.65 0 1 1 .002-1.295.65.65 0 0 1-.002 1.295zM9.555 61.716a2.354 2.354 0 0 0 2.351-2.352 2.354 2.354 0 0 0-2.351-2.352 2.354 2.354 0 0 0-2.352 2.352 2.354 2.354 0 0 0 2.352 2.352zm0-3a.65.65 0 1 1-.002 1.295.65.65 0 0 1 .002-1.295zm8.312 3a2.354 2.354 0 0 0 2.352-2.352 2.354 2.354 0 0 0-2.352-2.352 2.354 2.354 0 0 0-2.351 2.352 2.354 2.354 0 0 0 2.351 2.352zm0-3a.65.65 0 0 1 0 1.296.65.65 0 0 1 0-1.296zm8.313 3a2.354 2.354 0 0 0 2.351-2.352 2.354 2.354 0 0 0-2.351-2.352 2.353 2.353 0 0 0-2.348 2.352 2.353 2.353 0 0 0 2.348 2.352zm0-3a.65.65 0 1 1-.002 1.295.65.65 0 0 1 .002-1.295z"
          fill="#162056" fill-rule="evenodd"/>
</svg>
