<svg width="107" height="66" xmlns="http://www.w3.org/2000/svg">
    <g fill="#D52B1E" fill-rule="evenodd">
        <path d="M40.555 28.658c-1.904 0-3.116 1.248-3.49 2.902h6.772c-.23-1.828-1.498-2.902-3.282-2.902M22.458 29.383c-2.423 0-3.953 1.682-3.953 4.034 0 2.318 1.561 4.06 3.953 4.06 2.39 0 4.007-1.656 4.007-4.06 0-2.408-1.617-4.034-4.007-4.034"/>
        <path d="M42.024 37.968c1.295 0 2.495-.377 3.62-.9l-.366 3.508c-1.267.523-2.796.727-4.323.727-5.07 0-8.641-2.989-8.641-8.062 0-4.407 3.194-7.715 8.095-7.715 5.534 0 8.299 3.54 8.184 8.99h-11.41c.428 2.493 2.792 3.452 4.841 3.452zm-11.123-5.453c0 5.542-3.255 8.788-8.648 8.788-4.983 0-8.356-3.363-8.356-7.886 0-4.728 3.199-7.89 7.983-7.89 2.188 0 3.803.869 4.61 1.74v-6.73H30.9v11.978zm40.423-6.989c-3.633 0-6.465 1.463-6.93 5.254-.03.003.023 0-.008.003C63.242 13.593 49.766 0 32.395 0 18.665 0 6.915 8.495 2.028 20.537h11.64l-.603 3.948H3.927v4.173h8.27l-.634 3.8H3.927v2.435c0 1.479.635 2.175 1.846 2.175h7.807l-.632 3.945H4.303c-.422 0-.823-.039-1.203-.11v.003s-1.495-.164-2.425-1.378c-.02-.028-.396-.48-.583-1.22-.053-.195-.053-.205-.092-.36.062.494.164 1.152.212 1.399.264 1.374.597 2.54.628 2.622C4.72 55.835 17.377 66 32.395 66c15.363 0 28.345-10.635 31.9-24.987h-4.407v-8.06c0-2.178-.836-3.57-2.968-3.57s-2.97 1.392-2.97 3.57v8.06h-4.408v-9.165c0-4.378 3.17-6.322 7.378-6.322s7.378 1.944 7.378 6.322l-.003 9.165h4.437v-8.06c0-2.178.574-3.57 2.678-3.57.66 0 1.47.205 1.761.35l.834-3.887c-.49-.058-1.729-.32-2.681-.32zM77.98 31.56c.376-1.654 1.588-2.902 3.486-2.902 1.787 0 3.058 1.074 3.285 2.902h-6.772zm3.343-6.034c-4.899 0-8.098 3.309-8.098 7.715 0 5.074 3.573 8.062 8.647 8.062 1.526 0 3.056-.204 4.319-.726l.37-3.51c-1.126.524-2.325.9-3.623.9-2.046 0-4.41-.958-4.842-3.452h11.41c.118-5.45-2.651-8.989-8.183-8.989zM98.556 37.474c-2.392 0-3.95-1.738-3.95-4.057 0-2.352 1.528-4.034 3.95-4.034 2.39 0 4.004 1.627 4.004 4.034 0 2.404-1.613 4.057-4.004 4.057zm4.032-16.937v6.73c-.807-.871-2.419-1.74-4.61-1.74-4.783 0-7.98 3.162-7.98 7.89 0 4.524 3.37 7.886 8.354 7.886 5.39 0 8.648-3.246 8.648-8.788V20.537h-4.412z"/>
    </g>
</svg>
