<svg width="23" height="21" viewBox="0 0 23 21" xmlns="http://www.w3.org/2000/svg">
    <g fill="#FFF" fill-rule="nonzero">
        <path d="M22.297 2.8H13.15v2.8h2.111c.388 0 .703.314.703.7 0 .387-.315.7-.703.7h-2.11v1.4h2.11c.388 0 .703.314.703.7 0 .387-.315.7-.703.7h-2.11v1.4h2.11c.388 0 .703.314.703.7 0 .387-.315.7-.703.7h-2.11V14h2.11c.388 0 .703.314.703.7 0 .387-.315.7-.703.7h-2.11v2.8h9.145a.702.702 0 0 0 .703-.7v-14c0-.386-.315-.7-.703-.7zm-2.814 12.6h-1.407a.702.702 0 0 1-.704-.7c0-.386.316-.7.704-.7h1.407c.388 0 .703.314.703.7 0 .387-.315.7-.703.7zm0-2.8h-1.407a.702.702 0 0 1-.704-.7c0-.386.316-.7.704-.7h1.407c.388 0 .703.314.703.7 0 .387-.315.7-.703.7zm0-2.8h-1.407a.702.702 0 0 1-.704-.7c0-.386.316-.7.704-.7h1.407c.388 0 .703.314.703.7 0 .387-.315.7-.703.7zm0-2.8h-1.407a.702.702 0 0 1-.704-.7c0-.386.316-.7.704-.7h1.407c.388 0 .703.314.703.7 0 .387-.315.7-.703.7zM12.408.162a.694.694 0 0 0-.579-.148L.574 2.114A.7.7 0 0 0 0 2.8v15.4a.7.7 0 0 0 .574.687l11.255 2.1a.702.702 0 0 0 .833-.688V.7a.697.697 0 0 0-.254-.54zm-2.8 13.665a.703.703 0 0 1-.992-.067L6.57 11.434 4.776 13.73a.712.712 0 0 1-.99.123.699.699 0 0 1-.121-.983l1.961-2.508-1.934-2.2a.702.702 0 0 1 1.058-.92l1.756 1.994 2.083-2.665a.707.707 0 0 1 .988-.122.699.699 0 0 1 .122.983L7.45 10.31l2.225 2.53a.696.696 0 0 1-.066.987z"/>
    </g>
</svg>
