<svg width="16" height="16" viewBox="0 0 16 16" xmlns="http://www.w3.org/2000/svg">
    <path d="M7.69 0c4.246 0 7.688 3.367 7.688 7.52 0 1.96-.766 3.744-2.022 5.082l2.47 2.409a.57.57 0 0 1 .001.819.602.602 0 0 1-.77.057l-.067-.056-2.5-2.438a7.765 7.765 0 0 1-4.8 1.646c-4.247 0-7.69-3.367-7.69-7.52C0 3.367 3.443 0 7.69 0zm0 1.158c-3.593 0-6.506 2.848-6.506 6.361 0 3.514 2.913 6.362 6.505 6.362 3.593 0 6.505-2.848 6.505-6.362 0-3.513-2.912-6.36-6.505-6.36z" fill="#1D2228" fill-rule="nonzero"/>
</svg>
