<svg width="24" height="24" viewBox="0 0 24 24" xmlns="http://www.w3.org/2000/svg">
    <path d="M12 0c6.6 0 12 5.4 12 12s-5.4 12-12 12S0 18.6 0 12 5.4 0 12 0zm0 1.5C6.225 1.5 1.5 6.225 1.5 12S6.225 22.5 12 22.5 22.5 17.775 22.5 12 17.775 1.5 12 1.5zM9.498 9.429v7.113H7.14V9.429h2.358zm5.787-.167c1.552 0 2.715 1.016 2.715 3.201v4.079h-2.358v-3.806c0-.956-.34-1.608-1.194-1.608-.652 0-1.04.44-1.21.865-.062.152-.078.364-.078.576v3.973h-2.358v-.052c.001-.34.01-2.286.013-4.057v-1.5a56.349 56.349 0 0 0-.013-1.504h2.358v1.008c.313-.484.873-1.175 2.125-1.175zM8.335 6c.806 0 1.302.53 1.318 1.229 0 .683-.512 1.23-1.334 1.23h-.016C7.513 8.458 7 7.91 7 7.228 7 6.53 7.528 6 8.335 6z"
          fill="#FFF" fill-rule="evenodd"/>
</svg>
