<svg width="24" height="24" viewBox="0 0 24 24" xmlns="http://www.w3.org/2000/svg">
    <path d="M5.757 0C4.237 0 2.96 1.059 2.575 2.48L.86 2.477a.857.857 0 0 0-.61.255.872.872 0 0 0 .002 1.228.85.85 0 0 0 .608.25h1.712c.381 1.424 1.663 2.487 3.185 2.487 1.508 0 2.779-1.042 3.175-2.444l14.212-.042a.857.857 0 0 0 .606-.255.867.867 0 0 0 .25-.613.86.86 0 0 0-.856-.865l-14.189.042C8.585 1.08 7.292 0 5.757 0zm0 1.734c.894 0 1.599.712 1.599 1.615 0 .904-.706 1.617-1.599 1.617A1.594 1.594 0 0 1 4.16 3.349c0-.903.704-1.615 1.597-1.615zm9.159 6.643c-1.546 0-2.846 1.078-3.23 2.522H.861a.853.853 0 0 0-.608.253.87.87 0 0 0-.001 1.229.85.85 0 0 0 .609.252h10.827c.385 1.444 1.684 2.524 3.228 2.524 1.544 0 2.842-1.079 3.228-2.524h5a.852.852 0 0 0 .606-.255.867.867 0 0 0 .25-.613.863.863 0 0 0-.855-.866h-5c-.383-1.444-1.684-2.522-3.23-2.522zm0 1.733c.916 0 1.64.728 1.64 1.655 0 .926-.724 1.659-1.64 1.659-.917 0-1.641-.733-1.641-1.66 0-.926.724-1.654 1.64-1.654zm-6.662 7.104c-1.544 0-2.844 1.079-3.23 2.522l-4.163.001a.852.852 0 0 0-.61.254.877.877 0 0 0 .002 1.229.86.86 0 0 0 .608.251h4.161C5.405 22.919 6.708 24 8.254 24c1.546 0 2.847-1.082 3.23-2.529h11.66a.861.861 0 0 0 .856-.864.871.871 0 0 0-.249-.614.85.85 0 0 0-.606-.256H11.48c-.384-1.444-1.684-2.523-3.227-2.523zm0 1.733c.916 0 1.64.733 1.64 1.66 0 .926-.724 1.658-1.64 1.658-.916 0-1.64-.732-1.64-1.659 0-.926.724-1.659 1.64-1.659z" fill="#ffffff" fill-rule="evenodd"/>
</svg>
