<svg width="74" height="74" viewBox="0 0 74 74" xmlns="http://www.w3.org/2000/svg">
    <path d="M37 0a36.987 36.987 0 0 0-26.16 10.84 36.986 36.986 0 0 0 0 52.32 36.986 36.986 0 0 0 52.32 0 36.986 36.986 0 0 0 0-52.32A36.986 36.986 0 0 0 37 0zm17.426 30.191-18.83 18.831v.004a3.703 3.703 0 0 1-5.256 0L19.574 38.259a3.697 3.697 0 0 1 0-5.217 3.699 3.699 0 0 1 5.255 0l8.14 8.141 16.206-16.205-.003-.004a3.703 3.703 0 0 1 5.254 0 3.697 3.697 0 0 1 0 5.217z" fill="#4d5868" fill-rule="evenodd"/>
</svg>
