<svg width="16" height="16" viewBox="0 0 16 16" xmlns="http://www.w3.org/2000/svg">
    <path d="M8 0a8 8 0 1 0 0 16A8 8 0 0 0 8 0zm1.376 12.126a.573.573 0 0 1-.123.116c-.643.46-1.412.71-2.202.718-.723 0-1.12-.504-.96-1.208.202-.845.411-1.686.616-2.53a.61.61 0 0 0-.01-.464.516.516 0 0 0-.268-.214 1.02 1.02 0 0 0-.189-.033c-.077-.018-.19-.031-.246-.115l-.018-.028A.26.26 0 0 1 6.051 8l.146-.096.216-.12a4.644 4.644 0 0 1 1.255-.424c.176-.031.355-.051.535-.06.146 0 .29.016.432.047.52.125.78.588.64 1.151-.2.85-.413 1.699-.62 2.542-.1.403 0 .58.406.688.06.016.123.028.185.042.21.054.26.185.13.356zm-.683-6.355a1.365 1.365 0 0 1-.952-2.34 1.367 1.367 0 1 1 .952 2.34z" fill="#3F4957" fill-rule="evenodd"/>
</svg>
