<svg width="24" height="24" viewBox="0 0 24 24" xmlns="http://www.w3.org/2000/svg">
    <path d="M12 0c6.6 0 12 5.4 12 12s-5.4 12-12 12S0 18.6 0 12 5.4 0 12 0zm0 1.5C6.225 1.5 1.5 6.225 1.5 12S6.225 22.5 12 22.5 22.5 17.775 22.5 12 17.775 1.5 12 1.5zm2.325 5.625c.675 0 1.313.3 1.762.787a4.727 4.727 0 0 0 1.576-.6 2.423 2.423 0 0 1-1.088 1.35c.525-.037.975-.187 1.425-.375-.337.488-.75.938-1.2 1.275v.3c0 3.263-2.475 7.013-7.013 7.013-1.387 0-2.7-.375-3.787-1.088.188.038.412.038.6.038 1.163 0 2.25-.375 3.075-1.05-1.05-.037-1.988-.75-2.288-1.725.15.037.3.037.45.037.226 0 .413-.037.638-.075-1.125-.225-1.987-1.2-1.987-2.4v-.037c.337.188.712.3 1.124.3a2.537 2.537 0 0 1-1.087-2.063c0-.45.112-.862.337-1.237 1.2 1.5 3 2.475 5.063 2.587a2.895 2.895 0 0 1-.075-.562 2.473 2.473 0 0 1 2.475-2.475z"
          fill="#FFF" fill-rule="evenodd"/>
</svg>
