<svg width="14" height="18" viewBox="0 0 14 18" xmlns="http://www.w3.org/2000/svg">
    <path d="M9.074 10.615c2.645 0 4.803 1.98 4.92 4.463l.006.214v1.97c0 .373-.293.682-.672.731l-.106.007H.778c-.394 0-.72-.278-.77-.638l-.008-.1v-1.97c0-2.51 2.085-4.56 4.7-4.672l.226-.005h4.148zm0 1.477H4.926c-1.797 0-3.266 1.336-3.365 3.019l-.005.181v1.231h10.888v-1.23c0-1.646-1.308-3.001-2.99-3.18l-.189-.016-.19-.005zM7 0c2.72 0 4.926 2.094 4.926 4.677C11.926 7.26 9.72 9.354 7 9.354c-2.72 0-4.926-2.094-4.926-4.677C2.074 2.094 4.28 0 7 0zm0 1.477c-1.861 0-3.37 1.433-3.37 3.2 0 1.767 1.509 3.2 3.37 3.2 1.861 0 3.37-1.433 3.37-3.2 0-1.767-1.509-3.2-3.37-3.2z" fill="#495057" fill-rule="evenodd"/>
</svg>
