<svg width="20" height="20" viewBox="0 0 20 20" xmlns="http://www.w3.org/2000/svg">
    <path d="M2.062 9H5.1A5.006 5.006 0 0 1 9 5.1V2.062A8.004 8.004 0 0 0 2.062 9zM11 2.062V5.1A5.006 5.006 0 0 1 14.9 9h3.038A8.004 8.004 0 0 0 11 2.062zM17.938 11H14.9a5.006 5.006 0 0 1-3.9 3.9v3.038A8.004 8.004 0 0 0 17.938 11zM9 17.938V14.9A5.006 5.006 0 0 1 5.1 11H2.062A8.004 8.004 0 0 0 9 17.938zM0 10C0 4.477 4.477 0 10 0s10 4.477 10 10-4.477 10-10 10S0 15.523 0 10zm10-3a3 3 0 1 0 0 6 3 3 0 0 0 0-6z" fill="#FFF" fill-rule="evenodd"/>
</svg>
