<svg width="24" height="24" viewBox="0 0 24 24" xmlns="http://www.w3.org/2000/svg">
    <path d="M12 0c6.6 0 12 5.4 12 12s-5.4 12-12 12S0 18.6 0 12 5.4 0 12 0zm0 1.5C6.225 1.5 1.5 6.225 1.5 12S6.225 22.5 12 22.5 22.5 17.775 22.5 12 17.775 1.5 12 1.5zm.221 6.376c.65.003 2.593.02 3.979.111.225 0 .75.038 1.2.488.375.338.488 1.162.488 1.162s.112.976.112 1.913v.9c0 .975-.113 1.913-.113 1.913s-.112.825-.487 1.162c-.45.45-.975.45-1.2.487-1.386.093-3.329.11-3.979.112l-.212.001c-.009 0-3.122-.038-4.097-.113-.262-.037-.862-.037-1.312-.487-.375-.338-.487-1.162-.487-1.162S6 13.387 6 12.45v-.9c0-.938.112-1.913.112-1.913s.113-.825.488-1.162c.45-.45.975-.45 1.2-.487 1.386-.093 3.329-.11 3.979-.112zm-1.459 2.362v3.3l3.226-1.65-3.226-1.65z"
          fill="#FFF" fill-rule="evenodd"/>
</svg>
