<svg width="34" height="34" viewBox="0 0 34 34" xmlns="http://www.w3.org/2000/svg">
    <path d="M33.508 6.809A7.57 7.57 0 0 0 31.38 2.62 7.57 7.57 0 0 0 27.19.492a105.843 105.843 0 0 0-20.382 0A7.57 7.57 0 0 0 2.62 2.62 7.57 7.57 0 0 0 .492 6.81a105.825 105.825 0 0 0 0 20.38 7.572 7.572 0 0 0 6.317 6.32c6.778.655 13.604.655 20.382 0a7.572 7.572 0 0 0 6.317-6.319c.656-6.777.656-13.603 0-20.381zm-6.093 5.932L17.29 24.153c-.412.46-1 .724-1.618.726h-.013c-.614 0-1.2-.26-1.613-.715l-6.695-7.367a2.174 2.174 0 0 1-.604-1.584c.02-.589.278-1.144.713-1.539a2.179 2.179 0 0 1 3.119.194l5.06 5.575 8.517-9.59h-.002c.383-.44.924-.707 1.504-.745a2.187 2.187 0 0 1 1.587.545 2.181 2.181 0 0 1 .169 3.093v-.005z"
          fill="#699A00" fill-rule="evenodd"/>
</svg>
