<svg width="38" height="33" viewBox="0 0 38 33" xmlns="http://www.w3.org/2000/svg">
    <path d="M2.503 33h32.994c1.933 0 3.117-2.057 2.17-3.686L21.17 1.222c-.946-1.63-3.354-1.63-4.3 0L.331 29.353C-.614 30.983.57 33 2.503 33zM19.04 9.873c1.065 0 1.894.854 1.894 1.9l-.356 10.711A1.563 1.563 0 0 1 19 23.997c-.868 0-1.539-.66-1.579-1.513l-.316-10.67c0-1.048.868-1.94 1.935-1.94zM19 25.356c1.065 0 1.973.853 1.973 1.94 0 1.047-.868 1.94-1.973 1.94-1.066 0-1.974-.853-1.974-1.94s.908-1.94 1.974-1.94z"
          fill="#F72717" fill-rule="evenodd"/>
</svg>
