<svg width="19" height="22" xmlns="http://www.w3.org/2000/svg">
    <g stroke="#3F4957" stroke-width="1.5" fill="none" fill-rule="evenodd" stroke-linecap="round" stroke-linejoin="round">
        <path d="M1 12.787v-.219a3.6 3.6 0 0 1 .602-1.818 4.87 4.87 0 0 0 1.194-2.314c0-.666 0-1.342.058-2.009C3.154 3.218 6.327 1 9.46 1h.078c3.133 0 6.306 2.218 6.617 5.427.058.667 0 1.343.048 2.009a4.955 4.955 0 0 0 1.193 2.323c.365.538.573 1.164.602 1.81v.209c.022.87-.278 1.719-.844 2.39a4.505 4.505 0 0 1-2.853 1.37c-3.195.343-6.419.343-9.614 0a4.554 4.554 0 0 1-2.853-1.37 3.604 3.604 0 0 1-.834-2.38z"/>
        <path d="M7.055 19.852a3.088 3.088 0 0 0 4.288.505c.196-.146.372-.316.524-.505" opacity=".499"/>
    </g>
</svg>
