<svg width="24" height="24" viewBox="0 0 24 24" xmlns="http://www.w3.org/2000/svg">
    <path d="M12 0c6.6 0 12 5.4 12 12s-5.4 12-12 12S0 18.6 0 12 5.4 0 12 0zm0 1.5C6.225 1.5 1.5 6.225 1.5 12S6.225 22.5 12 22.5 22.5 17.775 22.5 12 17.775 1.5 12 1.5zm1.007 4.126c.36 0 .592.004.801.01l.176.007c.117.005.237.011.379.02.637 0 1.125.112 1.612.3.487.187.862.487 1.237.824.375.338.638.75.826 1.238.187.487.262.975.3 1.612l.02.379.006.176c.006.209.01.44.01.8l.001.764v1.251c-.002.36-.005.592-.011.801l-.007.176c-.005.117-.011.237-.02.379 0 .637-.112 1.125-.3 1.612-.187.487-.487.862-.825 1.237-.337.375-.75.638-1.237.826-.487.187-.975.262-1.612.3l-.379.02-.176.006c-.209.006-.44.01-.8.01l-.764.001h-1.251a28.71 28.71 0 0 1-.801-.011l-.176-.007a23.921 23.921 0 0 1-.379-.02 4.263 4.263 0 0 1-1.612-.3c-.488-.187-.863-.487-1.238-.825-.375-.337-.637-.75-.824-1.237-.188-.487-.263-.975-.3-1.612a23.92 23.92 0 0 1-.02-.379l-.007-.176a28.71 28.71 0 0 1-.01-.8v-2.015c0-.36.004-.592.01-.801l.007-.176c.005-.117.011-.237.02-.379 0-.637.112-1.125.3-1.612.187-.488.487-.863.824-1.238.338-.375.75-.637 1.238-.824.487-.188.975-.263 1.612-.3.142-.009.262-.015.379-.02l.176-.007c.209-.006.44-.01.8-.01zM12 7.125H9.75c-.6.037-.9.15-1.125.225-.3.113-.525.263-.75.488-.225.224-.375.45-.487.75-.113.225-.188.525-.226 1.125-.027.433-.034.651-.036 1.304l-.001.745v2.488c.037.6.15.9.225 1.125.113.3.263.525.488.75.224.225.45.375.75.488.225.112.525.187 1.125.224.433.028.651.035 1.304.037l.745.001h2.488c.6-.038.9-.15 1.125-.225.3-.112.525-.262.75-.487.225-.226.375-.45.488-.75.112-.226.187-.526.224-1.126.028-.433.035-.651.037-1.304l.001-.745V9.75c-.038-.6-.15-.9-.225-1.125a1.998 1.998 0 0 0-.487-.75 1.998 1.998 0 0 0-.75-.487c-.226-.113-.526-.188-1.126-.226a17.934 17.934 0 0 0-1.304-.036l-.745-.001H12zM12 8.7c1.838 0 3.3 1.463 3.3 3.3 0 1.838-1.463 3.3-3.3 3.3A3.281 3.281 0 0 1 8.7 12c0-1.838 1.463-3.3 3.3-3.3zm0 1.5c-.975 0-1.8.825-1.8 1.8 0 .975.825 1.8 1.8 1.8.975 0 1.8-.825 1.8-1.8 0-.975-.825-1.8-1.8-1.8zm3.188-2.1a.712.712 0 1 1 0 1.425.712.712 0 0 1 0-1.425z"
          fill="#FFF" fill-rule="evenodd"/>
</svg>
