<svg width="12" height="16" viewBox="0 0 12 16" xmlns="http://www.w3.org/2000/svg">
    <path d="M7.778 9.436c2.267 0 4.117 1.76 4.218 3.967l.004.19v1.75a.66.66 0 0 1-.576.651l-.09.006H.666a.663.663 0 0 1-.66-.567L0 15.343v-1.75C0 11.361 1.787 9.54 4.029 9.44l.193-.004h3.556zm0 1.313H4.222c-1.54 0-2.8 1.187-2.884 2.683l-.005.161v1.094h9.334v-1.094c0-1.462-1.121-2.667-2.564-2.826l-.161-.014-.164-.004zM6 0c2.332 0 4.222 1.861 4.222 4.157 0 2.296-1.89 4.158-4.222 4.158-2.332 0-4.222-1.862-4.222-4.158C1.778 1.861 3.668 0 6 0zm0 1.313c-1.595 0-2.889 1.273-2.889 2.844S4.405 7.002 6 7.002c1.595 0 2.889-1.274 2.889-2.845 0-1.57-1.294-2.844-2.889-2.844z" fill="#495057" fill-rule="evenodd"/>
</svg>
