<svg width="20" height="20" viewBox="0 0 20 20" xmlns="http://www.w3.org/2000/svg">
    <g stroke="#3F4957" stroke-width="1.385" fill="none" fill-rule="evenodd" stroke-linecap="round" stroke-linejoin="round">
        <path d="M14.846 15.538h2.77c.764 0 1.384-.62 1.384-1.384v-6.23c0-.766-.62-1.386-1.385-1.386H2.385C1.62 6.538 1 7.158 1 7.923v6.23c0 .766.62 1.385 1.385 1.385h2.769"/>
        <path d="M5.154 13.462v4.846c0 .382.31.692.692.692h8.308c.382 0 .692-.31.692-.692v-4.846H5.154zM14.846 6.538V1.692A.692.692 0 0 0 14.154 1H5.846a.692.692 0 0 0-.692.692v4.846M15.538 10h-1.384"/>
    </g>
</svg>
