<svg width="16" height="18" viewBox="0 0 16 18" xmlns="http://www.w3.org/2000/svg">
    <g stroke="#1D2228" stroke-width="1.2" fill="none" fill-rule="evenodd" stroke-linecap="round" stroke-linejoin="round">
        <path d="M1 10.43v-.175c.027-.519.198-1.021.496-1.455a3.859 3.859 0 0 0 .983-1.851c0-.533 0-1.074.048-1.607C2.774 2.775 5.387 1 7.967 1h.065c2.58 0 5.193 1.775 5.449 4.342.048.533 0 1.074.04 1.607.15.691.488 1.333.983 1.858.3.43.471.931.495 1.448v.167a2.803 2.803 0 0 1-.695 1.912 3.755 3.755 0 0 1-2.35 1.097 38.209 38.209 0 0 1-7.917 0 3.796 3.796 0 0 1-2.35-1.097 2.832 2.832 0 0 1-.686-1.904z"/>
        <path d="M5.986 16.081a2.54 2.54 0 0 0 1.678.902 2.597 2.597 0 0 0 1.854-.498c.161-.117.306-.252.431-.404" opacity=".499"/>
    </g>
</svg>
