<svg width="18" height="18" viewBox="0 0 18 18" xmlns="http://www.w3.org/2000/svg">
    <g transform="translate(1 1)" stroke="#6B7789" fill="none" fill-rule="evenodd">
        <path d="M1.23 2.462c-.679 0-1.23.55-1.23 1.23V14.77C0 15.45.551 16 1.23 16h13.54c.679 0 1.23-.551 1.23-1.23V3.691c0-.68-.551-1.23-1.23-1.23h-2.462"
              stroke-width="1.231" stroke-linecap="round" stroke-linejoin="round"/>
        <rect stroke-width=".667" fill="#DEE2E6" x="3" y="6.667" width="2" height="2" rx=".667"/>
        <rect stroke-width=".667" fill="#DEE2E6" x="7" y="6.667" width="2" height="2" rx=".667"/>
        <rect stroke-width=".667" fill="#DEE2E6" x="11" y="6.667" width="2" height="2" rx=".667"/>
        <rect stroke-width=".667" fill="#DEE2E6" x="3" y="10.667" width="2" height="2" rx=".667"/>
        <rect stroke-width=".667" fill="#DEE2E6" x="7" y="10.667" width="2" height="2" rx=".667"/>
        <rect stroke-width=".667" fill="#DEE2E6" x="11" y="10.667" width="2" height="2" rx=".667"/>
        <path stroke-width="1.231" stroke-linecap="round" stroke-linejoin="round"
              d="M3.692 0v4.923M12.308 0v4.923M3.692 2.462h6.154"/>
    </g>
</svg>
