<svg width="20" height="20" viewBox="0 0 20 20" xmlns="http://www.w3.org/2000/svg">
    <path d="M9.612 0c5.308 0 9.611 4.208 9.611 9.4 0 2.449-.958 4.68-2.528 6.353l3.088 3.01c.289.283.29.741 0 1.024a.753.753 0 0 1-.963.072l-.083-.07-3.124-3.047a9.707 9.707 0 0 1-6.001 2.057C4.303 18.799 0 14.59 0 9.399 0 4.21 4.303 0 9.612 0zm0 1.448c-4.491 0-8.132 3.56-8.132 7.951 0 4.392 3.64 7.952 8.132 7.952 4.49 0 8.13-3.56 8.13-7.952 0-4.391-3.64-7.951-8.13-7.951z" fill="#1D2228" fill-rule="nonzero"/>
</svg>
