<svg width="20" height="21" xmlns="http://www.w3.org/2000/svg">
    <g transform="translate(1 1)" stroke="#11142D" stroke-width="1.5" fill="none" fill-rule="evenodd" stroke-linecap="round" stroke-linejoin="round">
        <path d="m17.528 5.346-.622-1.08a1.913 1.913 0 0 0-2.609-.705h0a1.904 1.904 0 0 1-2.609-.678 1.83 1.83 0 0 1-.256-.915h0A1.913 1.913 0 0 0 9.519 0H8.265A1.904 1.904 0 0 0 6.36 1.913h0a1.913 1.913 0 0 1-1.913 1.886 1.83 1.83 0 0 1-.915-.257h0a1.913 1.913 0 0 0-2.609.705L.256 5.346A1.913 1.913 0 0 0 .95 7.954h0a1.913 1.913 0 0 1 0 3.314h0a1.904 1.904 0 0 0-.695 2.6h0l.631 1.089a1.913 1.913 0 0 0 2.61.74h0a1.895 1.895 0 0 1 2.599.697c.164.277.253.593.256.915h0c0 1.056.856 1.913 1.913 1.913h1.254c1.053 0 1.908-.851 1.913-1.904h0a1.904 1.904 0 0 1 1.913-1.913c.322.009.636.097.915.256h0a1.913 1.913 0 0 0 2.61-.695h0l.658-1.099a1.904 1.904 0 0 0-.696-2.608h0a1.904 1.904 0 0 1-.695-2.61c.166-.289.406-.529.695-.695h0a1.913 1.913 0 0 0 .696-2.6h0v-.008z" opacity=".701"/>
        <circle opacity=".701" cx="8.897" cy="9.611" r="2.636"/>
    </g>
</svg>
