<svg width="34" height="31" viewBox="0 0 34 31" xmlns="http://www.w3.org/2000/svg">
    <path d="M28.528 31H5.472c-2.321 0-4.071-.824-4.93-2.32s-.692-3.433.468-5.455l11.528-20.09C13.698 1.115 15.282 0 17 0c1.718 0 3.303 1.114 4.462 3.136L32.99 23.225c1.16 2.022 1.327 3.96.468 5.456C32.6 30.176 30.85 31 28.528 31zm-9.176-7.07a2.176 2.176 0 0 0-2.169-2.183c-1.198 0-2.17.977-2.17 2.182 0 1.206.972 2.183 2.17 2.183a2.175 2.175 0 0 0 2.17-2.183zm.06-13.139a2.235 2.235 0 0 0-2.229-2.242 2.235 2.235 0 0 0-2.228 2.242l.527 7.957h.007c.077.879.801 1.57 1.694 1.57.826 0 1.516-.589 1.675-1.373.013-.063.013-.13.02-.197h.014l.52-7.957z" fill="#FFF" fill-rule="evenodd"/>
</svg>
