<svg width="17" height="17" xmlns="http://www.w3.org/2000/svg">
    <path d="M8.5 0a8.5 8.5 0 1 0 0 17 8.5 8.5 0 0 0 0-17zm1.462 12.884a.609.609 0 0 1-.131.123c-.683.488-1.5.754-2.34.763-.767 0-1.19-.535-1.02-1.284.215-.897.438-1.791.656-2.687a.648.648 0 0 0-.012-.494.548.548 0 0 0-.284-.227 1.084 1.084 0 0 0-.201-.036c-.082-.018-.203-.032-.262-.122l-.018-.029c-.043-.062-.059-.139-.043-.212a.275.275 0 0 1 .122-.18l.155-.101.23-.128a4.934 4.934 0 0 1 1.333-.45c.188-.033.378-.055.569-.063.155 0 .308.016.459.05.552.132.83.624.68 1.222-.213.904-.439 1.805-.66 2.701-.105.428 0 .616.432.731.064.017.13.03.197.045.223.057.276.196.138.378zm-.726-6.752a1.45 1.45 0 0 1-1.01-2.487 1.452 1.452 0 1 1 1.01 2.487z" fill="#3F4957" fill-rule="evenodd"/>
</svg>
