<svg width="32" height="47" viewBox="0 0 32 47" xmlns="http://www.w3.org/2000/svg">
    <g fill="none" fill-rule="evenodd">
        <ellipse fill="#E5E5E5" cx="16" cy="45" rx="12" ry="2"/>
        <path d="M15.983 0C8.938-.045 2.448 4.603.533 11.654.101 13.246-.007 14.81 0 16.312c.027 5.324 2.912 9.924 6.168 14.39 3.255 4.466 6.924 8.86 8.88 13.67a1.035 1.035 0 0 0 1.905 0c1.955-4.81 5.624-9.204 8.88-13.67 3.254-4.466 6.14-9.066 6.167-14.39.008-1.501-.101-3.066-.533-4.658C29.552 4.602 23.06-.046 16.017 0h-.034zm0 2.05h.032c6.131-.052 11.776 3.973 13.449 10.132.367 1.35.474 2.739.468 4.13-.022 4.585-2.583 8.803-5.78 13.189-2.79 3.826-5.96 7.761-8.153 12.165-2.194-4.404-5.364-8.34-8.153-12.165-3.196-4.386-5.757-8.604-5.78-13.19-.006-1.39.101-2.779.469-4.13C4.208 6.024 9.852 1.998 15.983 2.05zm-.016 7.107c-3.649-.004-6.64 2.949-6.635 6.562.004 3.613 3.002 6.559 6.651 6.563 3.649.006 6.623-2.934 6.619-6.547-.004-3.613-2.987-6.575-6.636-6.579h.001zm0 2.048c2.533.004 4.565 2.023 4.569 4.53.004 2.507-2.036 4.502-4.569 4.498-2.533-.004-4.565-2.007-4.569-4.514-.004-2.507 2.036-4.518 4.569-4.514z"
              fill="#00A483"/>
    </g>
</svg>
