<svg width="38" height="30" viewBox="0 0 38 30" xmlns="http://www.w3.org/2000/svg">
    <g fill-rule="nonzero" fill="none">
        <path d="M7.09 29.934V27.95c0-.76-.448-1.257-1.217-1.257-.384 0-.801.13-1.089.562-.223-.362-.544-.562-1.025-.562-.321 0-.642.1-.895.462v-.397h-.672v3.177h.672V28.18c0-.563.287-.83.734-.83.448 0 .672.298.672.83v1.754h.671V28.18c0-.563.32-.83.735-.83.447 0 .671.298.671.83v1.754h.742zm9.958-3.177h-1.09v-.96h-.67v.96h-.609v.629h.608v1.457c0 .729.287 1.157 1.056 1.157.287 0 .608-.1.831-.231l-.194-.598a1.047 1.047 0 0 1-.578.166c-.32 0-.447-.2-.447-.529v-1.422h1.089v-.629h.004zm5.698-.07c-.384 0-.641.201-.801.463v-.397h-.672v3.178h.672v-1.79c0-.528.223-.829.641-.829.127 0 .287.035.418.066l.194-.663c-.135-.027-.325-.027-.452-.027zm-8.611.332c-.321-.231-.769-.331-1.25-.331-.768 0-1.279.397-1.279 1.025 0 .529.384.83 1.055.926l.321.035c.35.065.545.165.545.331 0 .232-.258.397-.705.397-.448 0-.802-.165-1.026-.331l-.32.528c.35.266.831.397 1.312.397.895 0 1.41-.432 1.41-1.026 0-.563-.418-.86-1.055-.96l-.321-.034c-.287-.035-.511-.1-.511-.297 0-.232.224-.363.578-.363.384 0 .768.166.962.266l.284-.563zm17.861-.331c-.384 0-.642.2-.802.462v-.397h-.671v3.178h.671v-1.79c0-.528.224-.829.642-.829.126 0 .287.035.417.066l.194-.656c-.13-.034-.32-.034-.451-.034zm-8.578 1.658c0 .96.641 1.654 1.633 1.654.448 0 .769-.1 1.09-.362l-.321-.563c-.258.2-.511.296-.802.296-.545 0-.929-.397-.929-1.025 0-.598.384-.995.929-1.026.287 0 .544.1.802.297l.32-.563c-.32-.266-.641-.362-1.089-.362-.992-.004-1.633.694-1.633 1.654zm6.21 0v-1.589h-.672v.397c-.223-.297-.544-.462-.962-.462-.865 0-1.537.694-1.537 1.654S27.13 30 27.994 30c.448 0 .768-.166.962-.463v.397h.672v-1.588zm-2.466 0c0-.563.35-1.026.929-1.026.545 0 .929.432.929 1.026 0 .563-.384 1.025-.929 1.025-.574-.034-.929-.466-.929-1.025zm-8.033-1.658c-.895 0-1.537.663-1.537 1.654 0 .995.642 1.654 1.57 1.654.448 0 .895-.131 1.25-.432l-.321-.497c-.257.2-.578.331-.895.331-.418 0-.832-.2-.929-.76h2.271v-.265c.03-1.022-.548-1.685-1.41-1.685zm0 .597c.417 0 .705.266.768.76h-1.6c.063-.428.35-.76.832-.76zm16.679 1.06V25.5h-.672v1.654c-.223-.297-.544-.462-.962-.462-.865 0-1.537.694-1.537 1.654S33.31 30 34.174 30c.448 0 .768-.166.962-.463v.397h.672v-1.588zm-2.466 0c0-.562.351-1.025.93-1.025.544 0 .928.432.928 1.026 0 .563-.384 1.025-.929 1.025-.578-.034-.929-.466-.929-1.025zm-22.475 0v-1.588h-.67v.397c-.225-.297-.545-.462-.963-.462-.865 0-1.537.694-1.537 1.654S8.37 30 9.234 30c.447 0 .768-.166.962-.463v.397h.671v-1.588zm-2.495 0c0-.562.35-1.025.929-1.025.545 0 .929.432.929 1.026 0 .563-.384 1.025-.929 1.025-.578-.034-.929-.466-.929-1.025z" fill="#000"/>
        <path fill="#FF5A00" d="M13.843 2.567h10.283v18.866H13.843z"/>
        <path d="M14.528 12c0-3.833 1.764-7.235 4.472-9.433A11.537 11.537 0 0 0 11.751 0C5.256 0 0 5.367 0 12s5.256 12 11.751 12c2.742 0 5.256-.967 7.249-2.567-2.712-2.167-4.472-5.6-4.472-9.433z" fill="#EB001B"/>
        <path d="M38 12c0 6.633-5.256 12-11.751 12-2.742 0-5.256-.967-7.249-2.567 2.742-2.202 4.472-5.6 4.472-9.433S21.708 4.765 19 2.567A11.518 11.518 0 0 1 26.245 0C32.745 0 38 5.402 38 12z" fill="#F79E1B"/>
    </g>
</svg>
