<svg width="57" height="19" viewBox="0 0 57 19" xmlns="http://www.w3.org/2000/svg">
    <g fill-rule="nonzero" fill="none">
        <path fill="#00579F" d="M24.541 19h-4.554L22.836.76h4.554zM41.455.783C40.53.411 39.063 0 37.249 0c-4.63 0-7.89 2.504-7.91 6.085-.04 2.642 2.334 4.109 4.109 4.99 1.814.9 2.43 1.487 2.43 2.29-.018 1.232-1.466 1.8-2.816 1.8-1.872 0-2.875-.293-4.399-.979l-.617-.294-.656 4.13c1.1.507 3.125.958 5.229.978 4.92 0 8.123-2.466 8.16-6.281.02-2.094-1.234-3.698-3.935-5.01-1.64-.84-2.644-1.408-2.644-2.27.019-.782.849-1.584 2.7-1.584 1.524-.04 2.644.332 3.493.704l.424.196.638-3.972zM47.736 12.538c.374-1.047 1.812-5.103 1.812-5.103-.019.039.373-1.067.597-1.746l.318 1.571s.859 4.366 1.046 5.278h-3.773zM53.34.76h-3.511c-1.083 0-1.905.33-2.372 1.513L40.714 19h4.762l.953-2.736h5.827c.13.64.542 2.736.542 2.736H57L53.339.76zM16.584.76l-4.523 12.451-.494-2.525c-.836-2.914-3.459-6.08-6.385-7.654L9.325 19h4.883L21.468.76h-4.884z"/>
        <path d="M7.434.76H.075L0 1.127c5.74 1.508 9.542 5.144 11.104 9.513l-1.6-8.352C9.241 1.127 8.431.798 7.434.76z" fill="#FAA61A"/>
    </g>
</svg>
