<svg width="744" height="1024" xmlns="http://www.w3.org/2000/svg">
    <g transform="translate(.32)" fill="#F72717" fill-rule="evenodd">
        <path d="M548.68 0h75v52.5c0 20.71-16.79 37.5-37.5 37.5-20.711 0-37.5-16.79-37.5-37.5V0zM638.68 0h66v414c0 18.225-14.775 33-33 33-18.226 0-33-14.775-33-33V0zM719.68 0h24v231c0 6.627-5.373 12-12 12-6.628 0-12-5.373-12-12V0zM204.68 1024h-66V610c0-18.225 14.774-33 33-33 18.225 0 33 14.775 33 33v414zM123.68 1024h-24V793c0-6.627 5.372-12 12-12 6.627 0 12 5.373 12 12v231z"/>
        <rect y="194" width="108" height="479" rx="54"/>
    </g>
</svg>
