<svg width="141" height="35" xmlns="http://www.w3.org/2000/svg">
    <g fill="none" fill-rule="evenodd">
        <path fill="#162056" d="M47.54 8.53h3.176v8.545h1.888V8.53h2.98l.224-1.655h-8.267zM56.36 17.075h1.653V9.142h-1.654zM56.36 8.009h1.653v-1.7h-1.654zM62.612 10.692c.599 0 1.081.248 1.315.396l.104.066.596-1.458-.086-.044a4.363 4.363 0 0 0-2.11-.51c-2.313 0-3.867 1.591-3.867 3.96 0 2.376 1.543 3.973 3.84 3.973.599 0 1.184-.12 1.648-.337l.055-.026.133-1.676-.173.106a2.71 2.71 0 0 1-1.36.383l-.057.001c-1.394 0-2.26-.929-2.26-2.424 0-1.441.894-2.41 2.222-2.41M70.892 15.17l-.388-1.249c-.322-.93-.63-1.344-1.604-1.344l2.542-3.142h-1.983l-2.417 3.085h-.109V6.875h-1.755v10.2h1.755V13.85h1.139c.518 0 .665.191.869.804l.373 1.175c.182.564.415 1.086.46 1.186l.027.06h1.992l-.114-.165c-.265-.388-.581-1.156-.787-1.74M77.618 12.17h-3.923c.266-1.008 1.017-1.606 2.033-1.606 1.027 0 1.71.583 1.89 1.606m-1.92-3.028c-2.263 0-3.905 1.642-3.905 3.903 0 2.41 1.631 4.03 4.06 4.03.727 0 1.37-.122 1.86-.35l.057-.027.116-1.6-.17.1c-.465.272-.963.399-1.572.399-1.088 0-2.292-.541-2.467-2.048h5.832v-.106c.007-1.379-.377-2.507-1.112-3.266-.657-.677-1.59-1.035-2.698-1.035M83.253 16.901a12.78 12.78 0 0 0-.11-.168c-.455-.686-1.302-1.963-1.302-3.728v-2.358h1.26l.261-1.534h-1.52V6.31l-1.782.741v5.927c0 1.966.756 3.194 1.162 3.856l.116.19.031.052h1.998l-.114-.174zM6.204 19.957c.833 0 1.477.26 1.869.478l.094.053.79-1.552-.092-.05c-.797-.437-1.797-.677-2.816-.677-3.192 0-5.344 2.157-5.359 5.368-.013 1.566.473 2.902 1.406 3.866.957.989 2.361 1.532 3.953 1.532 1.09 0 1.883-.286 2.26-.457l.055-.025.18-1.882-.173.094c-.494.265-1.122.536-2.026.536-2.166 0-3.565-1.438-3.565-3.663 0-2.2 1.344-3.62 3.424-3.62M15.296 26.735c-.408.418-.997.648-1.653.648-1.364 0-2.28-.952-2.28-2.367 0-1.38.947-2.382 2.253-2.382h.027c1.352 0 2.268.958 2.281 2.382.006.697-.21 1.292-.628 1.719m-1.652-5.693h-.032c-2.039 0-4.103 1.364-4.103 3.974 0 2.368 1.663 3.96 4.134 3.96 2.473 0 4.134-1.592 4.134-3.962-.014-2.36-1.674-3.957-4.133-3.972M26.35 21.042c-1.184 0-2.115.533-2.525 1.435-.419-.902-1.344-1.435-2.51-1.435-1.87 0-2.987 1.153-2.987 3.085v4.848h1.739v-4.56c0-.654.187-1.754 1.44-1.754.976 0 1.47.595 1.47 1.769v4.545h1.712V24.43c0-1.174.494-1.77 1.47-1.77 1.202 0 1.454.955 1.454 1.755v4.56h1.739v-4.848c0-1.932-1.121-3.085-3.002-3.085M34.581 22.694c1.332 0 2.3 1.039 2.3 2.47 0 1.469-.925 2.456-2.3 2.456-1.394 0-2.33-.987-2.33-2.456 0-1.478.936-2.47 2.33-2.47m0-1.652c-2.468 0-4.127 1.65-4.127 4.108v6.659h1.784v-3.637c.617.703 1.567 1.1 2.654 1.1 2.219 0 3.83-1.721 3.83-4.093 0-2.397-1.743-4.137-4.14-4.137M39.824 28.975h1.654v-10.2h-1.654zM42.58 28.975h1.653v-7.933H42.58zM42.58 19.909h1.653v-1.7H42.58zM53.358 21.042c-1.186 0-2.116.533-2.526 1.435-.42-.902-1.344-1.435-2.51-1.435-1.87 0-2.986 1.153-2.986 3.085v4.848h1.738v-4.56c0-.654.187-1.754 1.442-1.754.975 0 1.47.595 1.47 1.769v4.545h1.71V24.43c0-1.174.494-1.77 1.47-1.77 1.202 0 1.454.955 1.454 1.755v4.56h1.74v-4.848c0-1.932-1.122-3.085-3.002-3.085M63.287 24.07h-3.923c.266-1.008 1.017-1.606 2.033-1.606 1.027 0 1.71.584 1.89 1.607m-1.919-3.029c-2.263 0-3.906 1.642-3.906 3.902 0 2.412 1.632 4.031 4.06 4.031.726 0 1.37-.121 1.861-.35l.056-.028.116-1.599-.17.1c-.464.272-.963.399-1.573.399-1.087 0-2.29-.541-2.465-2.047h5.831v-.106c.008-1.38-.377-2.51-1.112-3.266-.658-.678-1.59-1.036-2.698-1.036M69.588 21.042c-2.072 0-3.307 1.192-3.307 3.192v4.741h1.71v-4.48c0-1.208.553-1.846 1.597-1.846s1.595.638 1.595 1.845v4.481h1.712v-4.74c0-2-1.236-3.193-3.307-3.193M77.08 28.631c-.455-.686-1.3-1.963-1.3-3.727v-2.358h1.257l.263-1.533h-1.52V18.21l-1.783.741v5.925c0 1.966.756 3.195 1.163 3.855l.116.193.03.052h1.998l-.113-.176-.112-.168M80.896 24.293l-.592-.284-.198-.094c-.52-.244-.968-.455-.968-.818 0-.15 0-.604 1.027-.604.586 0 1.255.21 1.79.566l.102.067.612-1.46-.09-.044a5.81 5.81 0 0 0-2.497-.58c-1.712 0-2.736.773-2.736 2.068 0 1.188.89 1.707 1.88 2.173l.592.285c.7.333 1.194.609 1.194 1.14 0 .54-.34.803-1.04.803-.636 0-1.287-.191-1.99-.584l-.103-.057-.575 1.485.09.041c.834.39 1.687.58 2.605.58 2.077 0 2.817-1.18 2.817-2.283 0-1.348-.947-1.924-1.92-2.4"/>
        <path d="M107.117 15.375c-.928 0-1.52.73-1.702 1.7h3.307c-.114-1.071-.732-1.7-1.605-1.7M98.51 15.942c-1.174 0-1.914.824-1.914 1.977 0 1.138.755 1.99 1.914 1.99 1.161 0 1.944-.81 1.944-1.99s-.783-1.977-1.944-1.977" fill="#F72717"/>
        <path d="M108.195 20.202c.648 0 1.246-.195 1.807-.464l-.182 1.808c-.632.27-1.395.373-2.157.373-2.531 0-4.314-1.539-4.314-4.153 0-2.27 1.596-3.973 4.04-3.973 2.762 0 4.142 1.822 4.085 4.63h-5.695c.216 1.286 1.395 1.779 2.416 1.779zm-5.55-2.81c0 2.854-1.625 4.527-4.314 4.527-2.487 0-4.17-1.732-4.17-4.063 0-2.435 1.596-4.063 3.983-4.063 1.092 0 1.898.448 2.301.895v-3.465h2.2v6.17zm20.172-3.599c-1.813 0-3.227.752-3.457 2.707h-.006C118.784 7.643 112.058.642 103.39.642c-6.85 0-12.715 4.375-15.153 10.581h5.808l-.301 2.031h-4.559v2.152h4.127l-.317 1.957h-3.81v1.254c0 .763.315 1.121.92 1.121h3.897l-.317 2.032h-4.313c-.21 0-.41-.021-.6-.056v.001s-.748-.084-1.21-.709a1.661 1.661 0 0 1-.292-.63l-.045-.184c.03.253.082.593.105.72.131.707.299 1.307.313 1.35 1.938 7.144 8.252 12.38 15.747 12.38 7.667 0 14.143-5.478 15.918-12.872h-2.199v-4.153c0-1.12-.416-1.838-1.481-1.838-1.064 0-1.48.718-1.48 1.838v4.153h-2.201v-4.722c0-2.255 1.581-3.255 3.681-3.255s3.682 1 3.682 3.255l-.002 4.722h2.214v-4.153c0-1.12.288-1.838 1.337-1.838.331 0 .734.104.877.18l.418-2.003c-.245-.03-.863-.163-1.338-.163zM126.017 17.274c.19-.83.804-1.457 1.77-1.457.908 0 1.551.54 1.668 1.457h-3.438zm1.698-3.032c-2.489 0-4.111 1.663-4.111 3.879 0 2.552 1.813 4.054 4.388 4.054.775 0 1.551-.101 2.194-.364l.186-1.765c-.57.263-1.18.452-1.839.452-1.038 0-2.238-.48-2.457-1.736h5.794c.057-2.742-1.347-4.52-4.155-4.52zM136.585 20.19c-1.164 0-1.92-.902-1.92-2.105 0-1.219.742-2.09 1.92-2.09 1.163 0 1.949.842 1.949 2.09 0 1.248-.786 2.105-1.95 2.105zm1.962-8.781v3.488c-.393-.451-1.177-.902-2.243-.902-2.326 0-3.882 1.639-3.882 4.09 0 2.346 1.639 4.09 4.064 4.09 2.622 0 4.204-1.684 4.204-4.555v-6.211h-2.143z" fill="#F72717"/>
    </g>
</svg>
