<svg width="120" height="74" xmlns="http://www.w3.org/2000/svg">
    <g fill="#F72717" fill-rule="evenodd">
        <path d="M45.482 32.131c-2.135 0-3.494 1.4-3.913 3.255h7.594c-.258-2.05-1.68-3.255-3.68-3.255M25.186 32.944c-2.717 0-4.432 1.886-4.432 4.523 0 2.6 1.75 4.553 4.432 4.553 2.681 0 4.494-1.857 4.494-4.553 0-2.699-1.813-4.523-4.494-4.523"/>
        <path d="m51.19 41.56-.41 3.935c-1.422.585-3.137.814-4.85.814-5.685 0-9.69-3.35-9.69-9.04 0-4.94 3.582-8.648 9.079-8.648 6.206 0 9.306 3.968 9.178 10.078H41.7c.481 2.796 3.132 3.871 5.43 3.871 1.452 0 2.798-.423 4.06-1.01zm-16.534-5.104c0 6.214-3.651 9.853-9.699 9.853-5.588 0-9.372-3.77-9.372-8.842 0-5.3 3.588-8.846 8.954-8.846 2.453 0 4.264.974 5.17 1.95v-7.545h4.947v13.43zm37.562-1.945c-.034.003.026 0-.01.003C70.925 15.24 55.812 0 36.331 0 20.932 0 7.755 9.524 2.275 23.026h13.054l-.677 4.427H4.404v4.679h9.274l-.71 4.26H4.404v2.73c0 1.658.713 2.439 2.07 2.439h8.756l-.709 4.423H4.826c-.473 0-.923-.043-1.35-.122 0 .003-1.676-.182-2.72-1.542-.021-.032-.443-.538-.653-1.368-.059-.219-.059-.23-.103-.404.07.553.184 1.29.238 1.568.296 1.54.67 2.849.705 2.94C5.294 62.603 19.488 74 36.33 74c17.23 0 31.788-11.924 35.775-28.016h-4.942v-9.037c0-2.442-.937-4.003-3.328-4.003-2.392 0-3.331 1.561-3.331 4.003v9.037H55.56V35.71c0-4.909 3.556-7.088 8.275-7.088 4.718 0 8.274 2.179 8.274 7.088l-.004 10.275h4.976v-9.037c0-2.442.645-4.003 3.004-4.003.741 0 1.65.23 1.975.392l.935-4.357c-.55-.066-1.939-.358-3.007-.358-4.074 0-7.25 1.64-7.771 5.89zM87.453 35.385c.422-1.854 1.782-3.254 3.911-3.254 2.004 0 3.429 1.205 3.683 3.254h-7.594zm3.75-6.765c-5.494 0-9.082 3.71-9.082 8.65 0 5.689 4.008 9.04 9.698 9.04 1.711 0 3.427-.23 4.844-.815l.414-3.934c-1.262.587-2.607 1.009-4.062 1.009-2.295 0-4.946-1.076-5.43-3.87h12.796c.132-6.111-2.974-10.08-9.178-10.08zM110.53 42.016c-2.683 0-4.43-1.949-4.43-4.549 0-2.637 1.713-4.523 4.43-4.523 2.681 0 4.49 1.824 4.49 4.523 0 2.696-1.809 4.55-4.49 4.55zm4.522-18.99v7.546c-.905-.977-2.713-1.952-5.17-1.952-5.365 0-8.95 3.547-8.95 8.847 0 5.073 3.78 8.842 9.369 8.842 6.046 0 9.699-3.64 9.699-9.853v-13.43h-4.948z"/>
    </g>
</svg>
