<svg width="95" height="35" xmlns="http://www.w3.org/2000/svg">
    <g fill="none" fill-rule="evenodd">
        <path d="M61.49 15.404c-.952 0-1.556.643-1.745 1.495h3.384c-.115-.94-.747-1.495-1.64-1.495M52.446 15.777c-1.209 0-1.974.868-1.974 2.078 0 1.195.78 2.092 1.974 2.092 1.196 0 2.004-.852 2.004-2.092 0-1.24-.808-2.078-2.004-2.078" fill="#F72717"/>
        <path d="M62.224 20.2c.647 0 1.247-.194 1.809-.462l-.183 1.806c-.633.271-1.398.374-2.16.374-2.534 0-4.318-1.539-4.318-4.152 0-2.27 1.596-3.975 4.044-3.975 2.765 0 4.147 1.823 4.091 4.633h-5.702c.214 1.282 1.394 1.776 2.42 1.776zm-5.558-2.809c0 2.856-1.627 4.527-4.322 4.527-2.49 0-4.175-1.731-4.175-4.062 0-2.436 1.6-4.065 3.99-4.065 1.093 0 1.9.45 2.303.897v-3.467h2.204v6.17zm20.198-3.6c-1.816 0-3.23.754-3.462 2.707-.015.001.01 0-.005.001C72.826 7.643 66.091.642 57.412.642c-6.861 0-12.731 4.376-15.172 10.579h5.816l-.302 2.034h-4.567v2.149h4.134l-.317 1.96h-3.817v1.254c0 .76.318 1.12.923 1.12h3.902l-.316 2.032h-4.321c-.21 0-.411-.02-.6-.056v.003s-.748-.086-1.212-.71c-.01-.015-.199-.248-.291-.63-.028-.1-.028-.108-.047-.185.03.252.083.592.107.718.132.707.298 1.31.313 1.354 1.94 7.14 8.263 12.378 15.767 12.378 7.678 0 14.164-5.48 15.94-12.872H71.15v-4.154c0-1.12-.418-1.836-1.483-1.836-1.066 0-1.484.715-1.484 1.836v4.154H65.98v-4.722c0-2.255 1.583-3.257 3.687-3.257 2.102 0 3.686 1.002 3.686 3.257l-.001 4.722h2.216v-4.154c0-1.12.287-1.836 1.34-1.836.33 0 .734.103.88.179l.416-2.003c-.245-.03-.865-.165-1.34-.165zM80.19 16.9c.188-.853.793-1.496 1.742-1.496.893 0 1.527.555 1.642 1.495H80.19zm1.67-3.109c-2.447 0-4.047 1.705-4.047 3.975 0 2.613 1.787 4.152 4.322 4.152.762 0 1.527-.103 2.158-.374l.185-1.807c-.563.269-1.162.463-1.812.463-1.02 0-2.202-.494-2.418-1.776h5.7c.06-2.81-1.324-4.633-4.089-4.633zM90.471 19.947c-1.195 0-1.973-.897-1.973-2.092 0-1.21.763-2.078 1.973-2.078 1.195 0 2.002.839 2.002 2.078 0 1.24-.807 2.092-2.002 2.092zm2.015-8.726v3.467c-.403-.448-1.209-.897-2.303-.897-2.39 0-3.988 1.629-3.988 4.064 0 2.331 1.684 4.063 4.174 4.063 2.695 0 4.321-1.671 4.321-4.527v-6.17h-2.204z" fill="#F72717"/>
        <path fill="#162056" d="M.69 8.036h3.2v8.835h1.905V8.036h3.003l.226-1.713H.69zM9.557 7.948h1.792V6.323H9.557zM9.557 16.871h1.792v-7.9H9.557zM16.179 10.434c.608 0 1.1.256 1.34.41l.103.065.607-1.5-.087-.046a4.404 4.404 0 0 0-2.148-.524c-2.356 0-3.94 1.638-3.94 4.075 0 2.444 1.572 4.088 3.912 4.088.61 0 1.207-.123 1.678-.346l.057-.027.135-1.725-.176.11a2.734 2.734 0 0 1-1.386.394l-.06.001c-1.418 0-2.299-.957-2.299-2.495 0-1.485.908-2.48 2.264-2.48M24.441 14.9l-.396-1.292c-.328-.96-.644-1.388-1.635-1.388h-.002l2.594-3.249h-2.024l-2.468 3.19h-.11V6.323h-1.79v10.548h1.79v-3.336h1.163c.53 0 .68.197.885.831l.382 1.216c.187.582.424 1.122.47 1.225l.028.064h2.034l-.118-.172c-.27-.402-.592-1.195-.803-1.8"/>
        <path d="M30.857 11.956H26.87c.27-1.039 1.034-1.653 2.065-1.653 1.044 0 1.739.6 1.92 1.653M28.91 8.84c-2.302 0-3.97 1.689-3.97 4.017 0 2.48 1.657 4.146 4.123 4.146.74 0 1.394-.124 1.891-.36l.057-.028.119-1.645-.173.102c-.47.28-.978.41-1.597.41-1.105 0-2.328-.556-2.505-2.106h5.924v-.11c.008-1.418-.382-2.58-1.13-3.36-.666-.696-1.615-1.066-2.74-1.066M36.509 16.699a3.493 3.493 0 0 0-.111-.164c-.455-.676-1.307-1.93-1.307-3.664v-2.32h1.266l.263-1.505H35.09V6.287l-1.792.73v5.823c0 1.933.76 3.14 1.168 3.79.042.07.083.132.117.189l.031.052h2.008l-.114-.172zM19.042 18.372c1.037 0 2.045.243 2.864.696l-.717 1.426a4.033 4.033 0 0 0-1.986-.515c-2.28 0-3.653 1.622-3.653 3.91 0 2.381 1.49 3.958 3.798 3.958.907 0 1.564-.258 2.149-.576l-.161 1.698c-.394.182-1.197.47-2.294.47-3.156 0-5.466-2.078-5.436-5.55.014-3.455 2.31-5.517 5.436-5.517M26.627 22.631c-1.505 0-2.484 1.198-2.484 2.654 0 1.5.95 2.638 2.484 2.638 1.505 0 2.513-1.077 2.513-2.638 0-1.563-1.008-2.654-2.513-2.654zm4.223 6.625h-1.593v-1.273c-.642.864-1.695 1.395-2.893 1.395-2.19 0-3.901-1.591-3.901-4.063 0-2.426 1.739-4.154 4.179-4.154 2.571 0 4.208 1.668 4.208 4.23v3.865zM36.257 22.829a2.447 2.447 0 0 0-.876-.182c-1.169 0-1.476.758-1.476 2.032v4.577h-1.622v-4.881c0-2.441 1.33-3.214 3.054-3.214.57 0 1.155.197 1.286.228l-.366 1.44z" fill="#162056"/>
    </g>
</svg>
