<svg width="128" height="35" xmlns="http://www.w3.org/2000/svg">
    <g fill="none" fill-rule="evenodd">
        <path fill="#162056" d="M33.607 8.064h3.233V16.9h1.925V8.064h3.033l.23-1.712h-8.42zM42.567 7.975h1.809V6.352h-1.81zM42.567 16.9h1.809V9h-1.81zM49.256 10.464c.615 0 1.113.254 1.355.408l.104.066.613-1.499-.087-.048a4.515 4.515 0 0 0-2.17-.522c-2.383 0-3.982 1.638-3.982 4.075 0 2.445 1.59 4.087 3.953 4.087.615 0 1.218-.123 1.696-.345l.056-.028.137-1.725-.179.11a2.787 2.787 0 0 1-1.4.394h-.058c-1.434 0-2.325-.957-2.325-2.493 0-1.485.917-2.48 2.287-2.48M57.604 14.929l-.4-1.292c-.332-.96-.65-1.39-1.653-1.39L58.17 9h-2.045l-2.493 3.19h-.111V6.352h-1.81V16.9h1.81v-3.335h1.174c.535 0 .685.197.895.83l.387 1.216c.188.581.427 1.121.472 1.225l.03.064h2.054l-.118-.172c-.272-.4-.598-1.195-.812-1.8"/>
        <path d="M64.086 11.985H60.06c.274-1.039 1.045-1.654 2.086-1.654 1.055 0 1.757.6 1.941 1.654M62.118 8.87c-2.325 0-4.01 1.69-4.01 4.015 0 2.48 1.674 4.147 4.166 4.147.747 0 1.407-.125 1.91-.36l.058-.027.12-1.646-.175.102c-.477.28-.989.41-1.613.41-1.117 0-2.353-.556-2.532-2.107h5.986v-.108c.008-1.42-.387-2.582-1.142-3.36-.674-.698-1.631-1.066-2.768-1.066M69.798 16.728c-.033-.053-.071-.106-.113-.165-.46-.675-1.32-1.93-1.32-3.664V10.58h1.278l.267-1.505h-1.546v-2.76l-1.81.73v5.823c0 1.934.768 3.142 1.18 3.792.044.069.085.132.119.188l.03.052h2.03l-.115-.172zM2.613 20.09H5.57c1.171 0 1.717.543 1.717 1.703 0 1.04-.621 1.661-1.66 1.661H3.689c-.704 0-1.076-.307-1.076-.885v-2.48zm6.373 7.308c-.08-.196-.153-.4-.225-.599-.31-.86-.63-1.745-1.559-2.15 1.24-.286 2.15-1.51 2.15-3 0-1.607-1.008-3.227-3.256-3.227H.69V28.97h1.923v-4.268c.154.21.413.392 1.047.392h.897c1.468 0 1.783.917 2.22 2.187.059.173.122.352.188.535.187.502.42.943.594 1.12l.031.034h2.29l-.14-.179c-.218-.282-.544-.921-.754-1.393zM15.772 24.054h-4.028c.274-1.038 1.044-1.653 2.085-1.653 1.057 0 1.757.602 1.943 1.653m-1.97-3.115c-2.324 0-4.01 1.687-4.01 4.014 0 2.48 1.674 4.148 4.167 4.148.747 0 1.408-.124 1.91-.361l.057-.027.12-1.646-.174.102c-.477.281-.99.41-1.614.41-1.116 0-2.352-.555-2.532-2.106h5.986v-.11c.008-1.419-.388-2.58-1.141-3.359-.676-.698-1.633-1.065-2.768-1.065M21.54 24.283l-.613-.292-.204-.097c-.538-.251-1.002-.469-1.002-.841 0-.154 0-.623 1.061-.623.607 0 1.299.22 1.851.583l.106.069.632-1.502-.094-.045a6.005 6.005 0 0 0-2.581-.596c-1.77 0-2.827.796-2.827 2.127 0 1.223.919 1.755 1.942 2.236l.613.293c.723.342 1.234.627 1.234 1.174 0 .555-.352.826-1.076.826-.657 0-1.33-.198-2.056-.602l-.107-.06-.594 1.53.091.042a6.263 6.263 0 0 0 2.695.596c2.148 0 2.912-1.213 2.912-2.349 0-1.387-.979-1.979-1.983-2.469M27.21 28.632c-.462-.675-1.322-1.93-1.322-3.663V22.65h1.28l.266-1.507h-1.546v-2.758l-1.808.731v5.825c0 1.93.767 3.139 1.179 3.787.044.07.084.132.118.189l.03.053h2.031l-.115-.173-.113-.165" fill="#162056"/>
        <path d="M31.536 27.462c-1.385 0-2.314-.978-2.314-2.435 0-1.42.973-2.45 2.314-2.45 1.393 0 2.329.985 2.329 2.45 0 1.457-.936 2.435-2.33 2.435m.016-6.523c-2.431 0-4.196 1.732-4.196 4.118 0 2.373 1.61 4.028 3.91 4.028 1.084 0 2.062-.417 2.729-1.156v1.04h1.766v-3.84c0-2.546-1.652-4.19-4.209-4.19M42.014 25.598c0 1.22-.58 1.864-1.674 1.864-1.095 0-1.675-.644-1.675-1.864V21.07H36.87v4.79c0 2.028 1.297 3.24 3.47 3.24s3.468-1.212 3.468-3.24v-4.79h-1.794v4.527zM49.268 21.161c-.014-.005-.036-.01-.065-.018-.195-.057-.715-.204-1.2-.204-2.047 0-3.084 1.08-3.084 3.21v4.82h1.795v-4.527c0-1.33.374-1.852 1.331-1.852.352 0 .668.116.785.157l.146.051.395-1.61-.103-.027zM53.287 27.462c-1.384 0-2.314-.978-2.314-2.435 0-1.42.973-2.45 2.314-2.45 1.393 0 2.33.985 2.33 2.45 0 1.457-.937 2.435-2.33 2.435m.015-6.523c-2.43 0-4.195 1.732-4.195 4.118 0 2.373 1.608 4.028 3.909 4.028 1.084 0 2.06-.417 2.728-1.156v1.04h1.767v-3.84c0-2.546-1.652-4.19-4.209-4.19M62.091 20.953c-2.172 0-3.469 1.207-3.469 3.224v4.793h1.796v-4.528c0-1.22.578-1.866 1.673-1.866 1.094 0 1.673.645 1.673 1.866v4.528h1.795v-4.793c0-2.017-1.296-3.224-3.468-3.224M69.798 28.797l-.111-.165c-.462-.676-1.321-1.93-1.321-3.663V22.65h1.279l.266-1.507h-1.545v-2.757l-1.81.73v5.824c0 1.93.767 3.14 1.18 3.788l.12.189.03.053h2.028l-.116-.173z" fill="#162056"/>
        <path d="M94.145 15.405c-.961 0-1.573.643-1.762 1.495h3.42c-.117-.942-.757-1.495-1.658-1.495M85.009 15.778c-1.223 0-1.995.867-1.995 2.079 0 1.194.787 2.091 1.995 2.091 1.207 0 2.023-.853 2.023-2.091 0-1.24-.816-2.079-2.023-2.079" fill="#F72717"/>
        <path d="M94.887 20.201c.654 0 1.26-.194 1.827-.463l-.184 1.807c-.64.269-1.412.374-2.183.374-2.56 0-4.362-1.54-4.362-4.153 0-2.27 1.612-3.974 4.087-3.974 2.793 0 4.19 1.823 4.131 4.63h-5.76c.216 1.285 1.41 1.78 2.444 1.78zm-5.615-2.809c0 2.855-1.644 4.527-4.366 4.527-2.516 0-4.22-1.732-4.22-4.062 0-2.436 1.616-4.065 4.031-4.065 1.105 0 1.92.448 2.327.896v-3.466h2.228v6.17zm20.407-3.6c-1.834 0-3.264.753-3.498 2.706-.016.002.011 0-.005.002C105.6 7.644 98.796.642 90.026.642c-6.932 0-12.864 4.376-15.331 10.58h5.876l-.304 2.034h-4.613v2.15h4.174l-.32 1.957h-3.854v1.254c0 .762.32 1.12.932 1.12h3.941l-.32 2.033h-4.363a3.26 3.26 0 0 1-.608-.056v.001s-.755-.085-1.224-.71c-.01-.014-.2-.247-.295-.628l-.046-.186c.031.254.083.593.107.72.133.708.301 1.31.317 1.352 1.96 7.142 8.349 12.379 15.93 12.379 7.757 0 14.31-5.478 16.105-12.872h-2.225v-4.152c0-1.122-.421-1.84-1.498-1.84-1.076 0-1.5.718-1.5 1.84v4.152h-2.225v-4.721c0-2.256 1.601-3.257 3.725-3.257s3.725 1.001 3.725 3.257l-.002 4.72h2.24v-4.151c0-1.122.29-1.84 1.352-1.84.334 0 .743.106.89.18l.42-2.001c-.247-.03-.872-.165-1.353-.165zM113.039 16.9c.19-.852.802-1.495 1.76-1.495.902 0 1.544.553 1.659 1.495h-3.419zm1.688-3.108c-2.473 0-4.088 1.704-4.088 3.974 0 2.614 1.804 4.153 4.365 4.153.77 0 1.543-.105 2.18-.374l.187-1.808c-.568.27-1.173.464-1.828.464-1.034 0-2.227-.494-2.445-1.778h5.76c.06-2.808-1.338-4.631-4.131-4.631zM123.427 19.947c-1.207 0-1.994-.896-1.994-2.09 0-1.212.771-2.078 1.994-2.078 1.207 0 2.022.838 2.022 2.078 0 1.238-.815 2.09-2.022 2.09zm2.036-8.726v3.467c-.407-.448-1.221-.896-2.328-.896-2.415 0-4.028 1.63-4.028 4.065 0 2.33 1.701 4.062 4.217 4.062 2.722 0 4.366-1.672 4.366-4.527v-6.17h-2.227z" fill="#F72717"/>
    </g>
</svg>
